<svg width="26" height="26" viewBox="0 0 26 26" fill="none" xmlns="http://www.w3.org/2000/svg">
<g id="634ab8d8da98aeb4f401c398_Vector.svg" clip-path="url(#clip0_225_69)">
<path id="Vector" d="M13 0C10.4288 0 7.91543 0.762437 5.77759 2.1909C3.63975 3.61935 1.97351 5.64968 0.989572 8.02512C0.00563294 10.4006 -0.251811 13.0144 0.249797 15.5362C0.751405 18.0579 1.98953 20.3743 3.80762 22.1924C5.6257 24.0105 7.94208 25.2486 10.4638 25.7502C12.9856 26.2518 15.5995 25.9944 17.9749 25.0104C20.3503 24.0265 22.3807 22.3603 23.8091 20.2224C25.2376 18.0846 26 15.5712 26 13C25.9934 9.55422 24.6216 6.25145 22.1851 3.81491C19.7486 1.37837 16.4458 0.00660747 13 0ZM18.925 13.3875C18.8705 13.5087 18.7942 13.6188 18.7 13.7125L14.4625 17.95C14.3718 18.0433 14.2628 18.117 14.1424 18.1665C14.022 18.2159 13.8927 18.2401 13.7625 18.2375C13.6305 18.2403 13.4992 18.2163 13.3767 18.1669C13.2543 18.1175 13.1431 18.0437 13.05 17.95C12.863 17.7625 12.758 17.5085 12.758 17.2437C12.758 16.979 12.863 16.725 13.05 16.5375L15.5875 14H8.00001C7.73479 14 7.48044 13.8946 7.2929 13.7071C7.10536 13.5196 7.00001 13.2652 7.00001 13C7.00001 12.7348 7.10536 12.4804 7.2929 12.2929C7.48044 12.1054 7.73479 12 8.00001 12H15.5875L13.05 9.4625C12.8776 9.27227 12.785 9.02305 12.7914 8.76643C12.7977 8.50982 12.9024 8.26545 13.0839 8.08394C13.2655 7.90243 13.5098 7.79767 13.7664 7.79135C14.0231 7.78503 14.2723 7.87764 14.4625 8.05L18.7 12.2875C18.7942 12.3812 18.8705 12.4913 18.925 12.6125C19.0251 12.8611 19.0251 13.1389 18.925 13.3875Z" fill="#19181C"/>
</g>
<defs>
<clipPath id="clip0_225_69">
<rect width="26" height="26" fill="white"/>
</clipPath>
</defs>
</svg>
