<svg width="16" height="14" viewBox="0 0 16 14" fill="none" xmlns="http://www.w3.org/2000/svg">
<g id="asset 41" clip-path="url(#clip0_30_466)">
<path id="Vector" d="M15.7575 2.14682C15.1775 2.3907 14.5975 2.58581 13.9208 2.63458C14.5975 2.24437 15.0808 1.61028 15.3225 0.878645C14.6941 1.26885 14.0175 1.51274 13.2925 1.65906C12.7124 1.02498 11.8908 0.634766 10.9724 0.634766C9.23237 0.634766 7.78234 2.04927 7.78234 3.85398C7.78234 4.09786 7.83067 4.34174 7.87901 4.58562C5.22062 4.43929 2.90057 3.17111 1.35387 1.22008C1.06387 1.70783 0.918866 2.24437 0.918866 2.82968C0.918866 3.95153 1.49888 4.92705 2.32056 5.51236C1.78888 5.51236 1.30554 5.36603 0.870529 5.12215V5.17093C0.870529 6.73176 1.98222 7.99993 3.43225 8.29258C3.14224 8.34136 2.90057 8.39013 2.61057 8.39013C2.41723 8.39013 2.2239 8.39014 2.03056 8.34136C2.41723 9.60954 3.62559 10.5363 4.97895 10.585C3.91559 11.463 2.5139 11.9508 1.01553 11.9508C0.77386 11.9508 0.483859 11.9508 0.242188 11.902C1.64389 12.8287 3.33558 13.3653 5.12395 13.3653C10.9724 13.3653 14.1625 8.48769 14.1625 4.24418C14.1625 4.09785 14.1625 3.95153 14.1625 3.85398C14.7908 3.31744 15.3708 2.78091 15.7575 2.14682Z" fill="#F5F2F7"/>
</g>
<defs>
<clipPath id="clip0_30_466">
<rect width="16" height="14" fill="white"/>
</clipPath>
</defs>
</svg>
