<svg width="14" height="14" viewBox="0 0 14 14" fill="none" xmlns="http://www.w3.org/2000/svg">
<g id="asset 42" clip-path="url(#clip0_30_462)">
<path id="Vector" d="M3.38092 1.84036C3.38092 2.63086 2.79845 3.25492 1.84154 3.25492C0.926224 3.25492 0.34375 2.63086 0.34375 1.84036C0.34375 1.04987 0.926224 0.425781 1.84154 0.425781C2.79845 0.425781 3.33932 1.04987 3.38092 1.84036ZM0.426959 13.573V4.41986H3.25611V13.573H0.426959ZM5.00352 7.33222C5.00352 6.20888 4.96192 5.25196 4.92031 4.41986H7.37502L7.49983 5.70963H7.54144C7.91588 5.12716 8.83119 4.21183 10.3706 4.21183C12.2428 4.21183 13.6574 5.45999 13.6574 8.16432V13.573H10.8282V8.49718C10.8282 7.33224 10.4122 6.50012 9.37206 6.50012C8.58156 6.50012 8.12391 7.041 7.91588 7.58186C7.83267 7.74828 7.83267 8.03952 7.83267 8.28916V13.573H5.00352V7.33222Z" fill="#F5F2F7"/>
</g>
<defs>
<clipPath id="clip0_30_462">
<rect width="14" height="14" fill="white"/>
</clipPath>
</defs>
</svg>
