<svg width="25" height="14" viewBox="0 0 25 14" fill="none" xmlns="http://www.w3.org/2000/svg">
<g id="ph:sun-horizon-bold" clip-path="url(#clip0_216_672)">
<path id="Vector" d="M22.7736 11.4976H19.4521C19.4586 11.3855 19.4623 11.2733 19.4623 11.1604C19.4623 9.46084 18.7258 7.83094 17.4148 6.6292C16.1038 5.42747 14.3257 4.75234 12.4717 4.75234C10.6177 4.75234 8.83961 5.42747 7.52862 6.6292C6.21764 7.83094 5.48113 9.46084 5.48113 11.1604C5.48113 11.2733 5.48113 11.3855 5.49125 11.4976H2.16981C1.87707 11.4976 1.59633 11.6042 1.38933 11.794C1.18233 11.9837 1.06604 12.2411 1.06604 12.5094C1.06604 12.7778 1.18233 13.0351 1.38933 13.2249C1.59633 13.4146 1.87707 13.5212 2.16981 13.5212L22.7736 13.5212C23.0663 13.5212 23.3471 13.4146 23.5541 13.2249C23.7611 13.0351 23.8774 12.7778 23.8774 12.5094C23.8774 12.2411 23.7611 11.9837 23.5541 11.794C23.3471 11.6042 23.0663 11.4976 22.7736 11.4976ZM7.68868 11.1604C7.68868 9.99753 8.19261 8.88234 9.0896 8.0601C9.98659 7.23785 11.2032 6.77592 12.4717 6.77592C13.7402 6.77592 14.9568 7.23785 15.8538 8.0601C16.7508 8.88234 17.2547 9.99753 17.2547 11.1604C17.2547 11.2733 17.2483 11.3855 17.2391 11.4976H7.70432C7.69512 11.3855 7.68868 11.2733 7.68868 11.1604ZM1.85892 6.79363C1.95149 6.53923 2.15046 6.32892 2.4121 6.20892C2.67374 6.08892 2.97665 6.06905 3.25427 6.15367L4.35804 6.49094C4.49705 6.53179 4.62584 6.59752 4.73695 6.68431C4.84806 6.7711 4.93928 6.87723 5.00534 6.99656C5.07139 7.11589 5.11097 7.24605 5.12178 7.3795C5.13259 7.51294 5.11442 7.64703 5.06831 7.77399C5.0222 7.90096 4.94908 8.01827 4.85317 8.11916C4.75726 8.22004 4.64048 8.30248 4.50958 8.36171C4.37867 8.42093 4.23626 8.45577 4.09057 8.4642C3.94488 8.47263 3.79881 8.45448 3.66083 8.41081L2.55705 8.07355C2.41953 8.03154 2.29238 7.9651 2.18286 7.87804C2.07334 7.79098 1.98361 7.685 1.91878 7.56614C1.85395 7.44729 1.8153 7.31789 1.80502 7.18534C1.79475 7.0528 1.81307 6.91969 1.85892 6.79363ZM7.00986 2.71189C6.95971 2.58492 6.93779 2.45002 6.94541 2.31516C6.95302 2.1803 6.99 2.0482 7.05418 1.92665C7.11836 1.8051 7.20844 1.69655 7.3191 1.60741C7.42976 1.51827 7.55877 1.45034 7.69852 1.40762C7.83827 1.3649 7.98594 1.34825 8.13282 1.35866C8.2797 1.36908 8.42282 1.40634 8.55374 1.46825C8.68467 1.53016 8.80074 1.61547 8.89514 1.71915C8.98953 1.82283 9.06032 1.94278 9.10335 2.07193L9.47128 3.08372C9.52143 3.2107 9.54334 3.34559 9.53573 3.48045C9.52812 3.61531 9.49113 3.74741 9.42695 3.86897C9.36277 3.99052 9.2727 4.09906 9.16204 4.18821C9.05137 4.27735 8.92237 4.34528 8.78261 4.388C8.64286 4.43072 8.49519 4.44737 8.34832 4.43695C8.20144 4.42654 8.05832 4.38928 7.92739 4.32737C7.79647 4.26546 7.68039 4.18015 7.586 4.07647C7.49161 3.97279 7.42081 3.85284 7.37779 3.72368L7.00986 2.71189ZM19.8872 7.77085C19.8414 7.64479 19.8231 7.51169 19.8333 7.37914C19.8436 7.24659 19.8823 7.1172 19.9471 6.99834C20.0119 6.87949 20.1016 6.7735 20.2112 6.68644C20.3207 6.59938 20.4478 6.53295 20.5854 6.49094L21.6891 6.15367C21.9659 6.07233 22.2664 6.09433 22.5256 6.21488C22.7848 6.33543 22.9816 6.54481 23.0734 6.79757C23.1652 7.05034 23.1445 7.32609 23.0159 7.56498C22.8873 7.80386 22.6611 7.98661 22.3863 8.07355L21.2826 8.41081C21.005 8.49544 20.702 8.47556 20.4404 8.35557C20.1788 8.23557 19.9798 8.02526 19.8872 7.77085ZM15.4721 3.08372L15.84 2.07193C15.8831 1.94278 15.9539 1.82283 16.0483 1.71915C16.1427 1.61547 16.2587 1.53016 16.3897 1.46825C16.5206 1.40634 16.6637 1.36908 16.8106 1.35866C16.9575 1.34825 17.1051 1.3649 17.2449 1.40762C17.3846 1.45034 17.5136 1.51827 17.6243 1.60741C17.735 1.69655 17.825 1.8051 17.8892 1.92665C17.9534 2.0482 17.9904 2.1803 17.998 2.31516C18.0056 2.45002 17.9837 2.58492 17.9335 2.71189L17.5656 3.72368C17.5226 3.85284 17.4518 3.97279 17.3574 4.07647C17.263 4.18015 17.1469 4.26546 17.016 4.32737C16.8851 4.38928 16.742 4.42654 16.5951 4.43695C16.4482 4.44737 16.3005 4.43072 16.1608 4.388C16.021 4.34528 15.892 4.27735 15.7814 4.18821C15.6707 4.09906 15.5806 3.99052 15.5164 3.86897C15.4523 3.74741 15.4153 3.61531 15.4077 3.48045C15.4001 3.34559 15.422 3.2107 15.4721 3.08372Z" fill="#1E04C1"/>
</g>
<defs>
<clipPath id="clip0_216_672">
<rect width="23.5472" height="12.7547" fill="white" transform="translate(0.69812 0.98111)"/>
</clipPath>
</defs>
</svg>
