<svg width="20" height="20" viewBox="0 0 20 20" fill="none" xmlns="http://www.w3.org/2000/svg">
<g id="vuesax/linear/shopping-cart">
<g id="shopping-cart">
<path id="Vector" d="M1.66663 1.66666H3.11663C4.01663 1.66666 4.72496 2.44166 4.64996 3.33332L3.95829 11.6333C3.84163 12.9916 4.91662 14.1583 6.28329 14.1583H15.1583C16.3583 14.1583 17.4083 13.175 17.5 11.9833L17.95 5.73333C18.05 4.34999 17 3.22499 15.6083 3.22499H4.84997" stroke="#19181C" stroke-width="1.5" stroke-miterlimit="10" stroke-linecap="round" stroke-linejoin="round"/>
<path id="Vector_2" d="M13.5417 18.3333C14.117 18.3333 14.5833 17.867 14.5833 17.2917C14.5833 16.7164 14.117 16.25 13.5417 16.25C12.9664 16.25 12.5 16.7164 12.5 17.2917C12.5 17.867 12.9664 18.3333 13.5417 18.3333Z" stroke="#19181C" stroke-width="1.5" stroke-miterlimit="10" stroke-linecap="round" stroke-linejoin="round"/>
<path id="Vector_3" d="M6.87492 18.3333C7.45021 18.3333 7.91658 17.867 7.91658 17.2917C7.91658 16.7164 7.45021 16.25 6.87492 16.25C6.29962 16.25 5.83325 16.7164 5.83325 17.2917C5.83325 17.867 6.29962 18.3333 6.87492 18.3333Z" stroke="#19181C" stroke-width="1.5" stroke-miterlimit="10" stroke-linecap="round" stroke-linejoin="round"/>
<path id="Vector_4" d="M7.5 6.66666H17.5" stroke="#19181C" stroke-width="1.5" stroke-miterlimit="10" stroke-linecap="round" stroke-linejoin="round"/>
</g>
</g>
</svg>
