<svg width="81" height="80" viewBox="0 0 81 80" fill="none" xmlns="http://www.w3.org/2000/svg">
<g id="vuesax/outline/tick-circle">
<g id="tick-circle">
<path id="Vector" d="M40.5003 75.8333C20.7337 75.8333 4.66699 59.7667 4.66699 40C4.66699 20.2333 20.7337 4.16667 40.5003 4.16667C60.267 4.16667 76.3337 20.2333 76.3337 40C76.3337 59.7667 60.267 75.8333 40.5003 75.8333ZM40.5003 9.16667C23.5003 9.16667 9.66699 23 9.66699 40C9.66699 57 23.5003 70.8333 40.5003 70.8333C57.5003 70.8333 71.3337 57 71.3337 40C71.3337 23 57.5003 9.16667 40.5003 9.16667Z" fill="#1E04C1"/>
<path id="Vector_2" d="M35.7648 51.9333C35.0982 51.9333 34.4648 51.6667 33.9982 51.2L24.5648 41.7667C23.5982 40.8 23.5982 39.2 24.5648 38.2333C25.5315 37.2667 27.1315 37.2667 28.0982 38.2333L35.7648 45.9L52.8982 28.7667C53.8648 27.8 55.4649 27.8 56.4315 28.7667C57.3982 29.7333 57.3982 31.3333 56.4315 32.3L37.5315 51.2C37.0648 51.6667 36.4315 51.9333 35.7648 51.9333Z" fill="#1E04C1"/>
</g>
</g>
</svg>
